# xmcd
#
# Track frame offsets: 
#        150
#        21444
#        36232
#        66872
#        90900
#        107842
#        127567
#        155655
#        172637
#        195409
#
# Disc length: 2962 seconds
#
# Revision: 0
# Processed by: cddbd v1.5.2PL0 Copyright (c) Steve Scherf et al.
# Submitted via: ExactAudioCopy v0.95a5
#
DISCID=700b900a
DTITLE=Rick Carroll and Wicked Blue - Semi Automatic Slim
DYEAR=1998
DGENRE=Blues-Rock
TTITLE0=Come On In My Kitchen
TTITLE1=Got My Eye On You
TTITLE2=Little Bird
TTITLE3=Bye Bye Baby
TTITLE4=Working Girl
TTITLE5=Bad Need
TTITLE6=Can't Find The Reason Why
TTITLE7=I'm Your Hoochie Coochie Man
TTITLE8=I Just Want To Make Love To You
TTITLE9=Goin' Home
EXTD=
EXTT0=
EXTT1=
EXTT2=
EXTT3=
EXTT4=
EXTT5=
EXTT6=
EXTT7=
EXTT8=
EXTT9=
PLAYORDER=
